<?xml version="1.0" encoding="UTF-8" standalone="no"?>
<!-- Created with Inkscape (http://www.inkscape.org/) -->

<svg
   xmlns:dc="http://purl.org/dc/elements/1.1/"
   xmlns:cc="http://creativecommons.org/ns#"
   xmlns:rdf="http://www.w3.org/1999/02/22-rdf-syntax-ns#"
   xmlns:svg="http://www.w3.org/2000/svg"
   xmlns="http://www.w3.org/2000/svg"
   xmlns:sodipodi="http://sodipodi.sourceforge.net/DTD/sodipodi-0.dtd"
   xmlns:inkscape="http://www.inkscape.org/namespaces/inkscape"
   width="90.96315mm"
   height="36.7342mm"
   viewBox="0 0 322.31037 130.16055"
   id="svg2"
   version="1.1"
   inkscape:version="0.91 r13725"
   sodipodi:docname="logo.svg">
  <defs
     id="defs4">
    <clipPath
       id="clipPath4148"
       clipPathUnits="userSpaceOnUse">
      <path
         inkscape:connector-curvature="0"
         id="path4150"
         d="m 0,0 609.45,0 0,722.83 L 0,722.83 0,0 Z" />
    </clipPath>
    <clipPath
       id="clipPath4162"
       clipPathUnits="userSpaceOnUse">
      <path
         inkscape:connector-curvature="0"
         id="path4164"
         d="m 0,722.83 609.45,0 L 609.45,0 0,0 0,722.83 Z" />
    </clipPath>
    <clipPath
       id="clipPath4170"
       clipPathUnits="userSpaceOnUse">
      <path
         inkscape:connector-curvature="0"
         id="path4172"
         d="m -18.045,731.601 637.128,0 0,-742.3816 -637.128,0 0,742.3816 z" />
    </clipPath>
    <radialGradient
       id="radialGradient4178"
       spreadMethod="pad"
       gradientTransform="matrix(812.46765,0,0,-789.09637,95.234558,167.64948)"
       gradientUnits="userSpaceOnUse"
       r="1"
       cy="0"
       cx="0"
       fy="0"
       fx="0">
      <stop
         id="stop4180"
         offset="0"
         style="stop-opacity:1;stop-color:#ffffff" />
      <stop
         id="stop4182"
         offset="0.530612"
         style="stop-opacity:1;stop-color:#ffffff" />
      <stop
         id="stop4184"
         offset="1"
         style="stop-opacity:1;stop-color:#677d85" />
    </radialGradient>
    <clipPath
       id="clipPath4204"
       clipPathUnits="userSpaceOnUse">
      <path
         inkscape:connector-curvature="0"
         id="path4206"
         d="m -18.045,123.45 635.25,0 0,-134.2172 -635.25,0 0,134.2172 z" />
    </clipPath>
    <clipPath
       id="clipPath4222"
       clipPathUnits="userSpaceOnUse">
      <path
         inkscape:connector-curvature="0"
         id="path4224"
         d="m 0,722.83 609.45,0 L 609.45,0 0,0 0,722.83 Z" />
    </clipPath>
    <clipPath
       id="clipPath4284"
       clipPathUnits="userSpaceOnUse">
      <path
         inkscape:connector-curvature="0"
         id="path4286"
         d="m 0,722.83 609.45,0 L 609.45,0 0,0 0,722.83 Z" />
    </clipPath>
  </defs>
  <sodipodi:namedview
     id="base"
     pagecolor="#ffffff"
     bordercolor="#666666"
     borderopacity="1.0"
     inkscape:pageopacity="0.0"
     inkscape:pageshadow="2"
     inkscape:zoom="2.8284271"
     inkscape:cx="156.46482"
     inkscape:cy="47.691184"
     inkscape:document-units="px"
     inkscape:current-layer="layer1"
     showgrid="false"
     fit-margin-top="0"
     fit-margin-left="0"
     fit-margin-right="0"
     fit-margin-bottom="0"
     inkscape:window-width="1858"
     inkscape:window-height="1053"
     inkscape:window-x="-8"
     inkscape:window-y="-8"
     inkscape:window-maximized="1" />
  <metadata
     id="metadata7">
    <rdf:RDF>
      <cc:Work
         rdf:about="">
        <dc:format>image/svg+xml</dc:format>
        <dc:type
           rdf:resource="http://purl.org/dc/dcmitype/StillImage" />
        <dc:title></dc:title>
      </cc:Work>
    </rdf:RDF>
  </metadata>
  <g
     inkscape:label="Calque 1"
     inkscape:groupmode="layer"
     id="layer1"
     transform="translate(-99.716258,-86.315164)">
    <g
       id="g4432"
       transform="matrix(1.9169485,0,0,1.9169485,-89.6837,-78.439455)">
      <g
         style="fill:#002d62;fill-opacity:1"
         transform="matrix(1.25,0,0,-1.25,141.52163,97.75554)"
         id="g4214">
        <path
           inkscape:connector-curvature="0"
           id="path4216"
           style="fill:#002d62;fill-opacity:1;fill-rule:nonzero;stroke:none"
           d="m 0,0 -22.98,0 2.405,-5.812 10.957,0 -6.95,-15.774 L -26.721,0 -33.4,0 -16.701,-36.254 0,0 Z" />
      </g>
      <g
         style="fill:#002d62;fill-opacity:1"
         transform="matrix(1.25,0,0,-1.25,-422.60349,937.15404)"
         id="g4218">
        <g
           style="fill:#002d62;fill-opacity:1"
           clip-path="url(#clipPath4222)"
           id="g4220">
          <g
             style="fill:#002d62;fill-opacity:1"
             transform="translate(446.8624,646.7051)"
             id="g4226">
            <path
               inkscape:connector-curvature="0"
               id="path4228"
               style="fill:#002d62;fill-opacity:1;fill-rule:nonzero;stroke:none"
               d="M 0,0 C -0.079,0.757 -0.241,1.449 -0.453,2.175 L 2.315,3.668 C 2.108,4.288 1.862,4.89 1.582,5.472 L -1.439,4.679 c -0.355,0.672 -0.767,1.252 -1.23,1.847 l 2.004,2.421 C -1.012,9.433 -1.088,9.545 -1.442,9.999 L -2.185,8.446 -5.047,2.517 c 1.076,-1.47 1.267,-1.845 1.267,-3.807 0,-4.306 -3.061,-7.896 -7.127,-8.712 l -1.356,-3.112 -1.355,3.112 c -4.065,0.816 -7.128,4.406 -7.128,8.712 0,1.962 0.192,2.337 1.27,3.807 l -2.874,5.856 -0.734,1.626 c -0.284,-0.358 -0.451,-0.621 -0.777,-1.052 l 2.006,-2.421 c -0.467,-0.595 -0.874,-1.175 -1.231,-1.847 l -3.023,0.793 C -26.388,4.89 -26.633,4.288 -26.841,3.668 l 2.767,-1.493 C -24.285,1.449 -24.446,0.757 -24.524,0 l -3.098,-0.395 c -0.04,-0.645 -0.043,-1.294 -0.006,-1.946 l 3.125,-0.348 c 0.079,-0.752 0.188,-1.455 0.396,-2.187 l -2.723,-1.526 c 0.205,-0.615 0.445,-1.141 0.727,-1.73 l 3.025,0.772 c 0.354,-0.67 0.719,-1.28 1.187,-1.879 l -1.951,-2.437 c 0.415,-0.492 0.868,-0.96 1.347,-1.402 l 2.49,1.92 c 0.577,-0.488 1.144,-0.917 1.805,-1.297 l -0.9,-2.99 c 0.573,-0.3 1.166,-0.566 1.775,-0.796 l 1.589,2.712 c 0.72,-0.236 1.406,-0.421 2.158,-0.528 l 0.289,-3.108 c 0.643,-0.063 0.374,-0.088 1.026,-0.072 0.652,-0.016 0.384,0.009 1.027,0.072 l 0.289,3.108 c 0.753,0.107 1.439,0.292 2.158,0.528 l 1.588,-2.712 c 0.611,0.23 1.202,0.496 1.777,0.796 l -0.899,2.99 c 0.658,0.38 1.225,0.809 1.804,1.297 l 2.489,-1.92 c 0.481,0.442 0.931,0.91 1.348,1.402 l -1.953,2.437 c 0.468,0.599 0.833,1.209 1.188,1.879 l 3.025,-0.772 c 0.28,0.589 0.523,1.115 0.726,1.73 l -2.725,1.526 c 0.209,0.732 0.32,1.435 0.399,2.187 l 3.126,0.348 c 0.035,0.652 0.035,1.301 -0.007,1.946 L 0,0 Z" />
          </g>
          <g
             style="fill:#002d62;fill-opacity:1"
             transform="translate(426.9398,675.5941)"
             id="g4230">
            <path
               inkscape:connector-curvature="0"
               id="path4232"
               style="fill:#002d62;fill-opacity:1;fill-rule:nonzero;stroke:none"
               d="m 0,0 c 1.664,0 3.067,-0.465 4.61,-1.203 1.306,-0.622 2.536,-1.172 4.041,-1.237 1.534,-0.067 4.218,-0.052 5.849,0.637 0.711,0.301 1.068,0.6 0.866,1.603 0.309,0.798 1.114,0.726 1.737,1.202 0.445,0.343 0.8,1.19 0.8,1.804 0,0.594 0.624,0.402 1.136,0.802 0.35,0.273 0.667,0.802 0.868,1.469 -1.403,0 -3.128,-0.684 -4.541,-0.935 -1.845,-0.326 -3.141,-0.668 -5.144,-0.668 -4.677,0 -7.415,1.47 -11.29,1.47 -4.778,0 -8.016,-2.606 -8.016,-7.148 l 6.68,0 C -2.136,-0.401 -0.601,0 0,0" />
          </g>
          <g
             style="fill:#002d62;fill-opacity:1"
             transform="translate(531.6088,671.5208)"
             id="g4234">
            <path
               inkscape:connector-curvature="0"
               id="path4236"
               style="fill:#002d62;fill-opacity:1;fill-rule:nonzero;stroke:none"
               d="M 0,0 -0.917,0 C -4.415,0 -6.812,-1.024 -6.81,-5.773 l 0,-1.209 c 0,-5.065 2.971,-5.876 5.978,-5.952 0.182,-0.005 0.496,-0.006 0.644,-0.002 3.042,0.06 6.081,0.832 6.081,5.954 l 0,1.209 C 5.895,-1.024 3.497,0 0,0 m 0.403,-10.118 -1.723,0 c -1.511,0 -2.552,0.497 -2.553,2.111 l 0.001,3.29 c -0.001,1.365 0.945,1.923 2.929,1.923 l 0.967,0 c 1.986,0 2.932,-0.558 2.931,-1.923 l 10e-4,-3.29 C 2.955,-9.621 1.914,-10.118 0.403,-10.118" />
          </g>
          <g
             style="fill:#002d62;fill-opacity:1"
             transform="translate(515.3937,671.5208)"
             id="g4238">
            <path
               inkscape:connector-curvature="0"
               id="path4240"
               style="fill:#002d62;fill-opacity:1;fill-rule:nonzero;stroke:none"
               d="M 0,0 0.001,-7.677 -7.091,0 l -1.833,0 10e-4,-13.012 2.793,0 0,7.678 7.091,-7.678 1.833,0 L 2.794,0 0,0 Z" />
          </g>
          <g
             style="fill:#002d62;fill-opacity:1"
             transform="translate(548.1101,671.5208)"
             id="g4242">
            <path
               inkscape:connector-curvature="0"
               id="path4244"
               style="fill:#002d62;fill-opacity:1;fill-rule:nonzero;stroke:none"
               d="M 0,0 0.001,-7.677 -7.092,0 l -1.833,0 0.002,-13.011 2.793,0 0,7.677 7.091,-7.677 1.833,0 L 2.793,0 0,0 Z" />
          </g>
          <g
             style="fill:#002d62;fill-opacity:1"
             transform="translate(476.3516,668.7265)"
             id="g4246">
            <path
               inkscape:connector-curvature="0"
               id="path4248"
               style="fill:#002d62;fill-opacity:1;fill-rule:nonzero;stroke:none"
               d="m 0,0 3.359,0 0,2.794 -3.334,0 c -3.497,0 -5.895,-1.024 -5.893,-5.773 l 0,-1.209 c 0,-5.37 3.341,-5.958 6.523,-5.958 l 2.704,0 0,2.822 -3.736,0 c -1.511,0 -2.552,0.497 -2.554,2.111 l 0,0.139 5.382,0 0,2.794 -5.38,0 0,0.357 C -2.931,-0.557 -1.985,0 0,0" />
          </g>
          <g
             style="fill:#002d62;fill-opacity:1"
             transform="translate(487.6464,671.5208)"
             id="g4250">
            <path
               inkscape:connector-curvature="0"
               id="path4252"
               style="fill:#002d62;fill-opacity:1;fill-rule:nonzero;stroke:none"
               d="m 0,0 3.334,0 0,-2.794 -3.359,0 c -1.985,0 -2.931,-0.558 -2.93,-1.923 l -10e-4,-3.29 c 10e-4,-1.614 1.042,-2.111 2.553,-2.111 l 3.737,0 0,-2.823 -2.704,0 c -3.182,0 -6.523,0.588 -6.523,5.959 l 0,1.209 C -5.895,-1.024 -3.498,0 0,0" />
          </g>
          <path
             inkscape:connector-curvature="0"
             id="path4254"
             style="fill:#002d62;fill-opacity:1;fill-rule:nonzero;stroke:none"
             d="m 523.025,658.553 -2.794,0 0,12.969 2.794,0 0,-12.969 z" />
          <g
             style="fill:#002d62;fill-opacity:1"
             transform="translate(501.6322,671.5208)"
             id="g4256">
            <path
               inkscape:connector-curvature="0"
               id="path4258"
               style="fill:#002d62;fill-opacity:1;fill-rule:nonzero;stroke:none"
               d="m 0,0 0,-5.074 -5.815,0 0,5.074 -2.794,0 0,-12.969 2.794,0 0,5.101 5.815,0 0,-5.101 2.794,0 L 2.794,0 0,0 Z" />
          </g>
          <g
             style="fill:#002d62;fill-opacity:1"
             transform="translate(468.9473,671.5208)"
             id="g4260">
            <path
               inkscape:connector-curvature="0"
               id="path4262"
               style="fill:#002d62;fill-opacity:1;fill-rule:nonzero;stroke:none"
               d="m 0,0 -11.211,0 0,-2.794 4.208,0 0,-10.175 2.795,0 0,10.175 4.208,0 L 0,0 Z" />
          </g>
          <g
             style="fill:#002d62;fill-opacity:1"
             transform="translate(462.5906,632.8344)"
             id="g4264">
            <path
               inkscape:connector-curvature="0"
               id="path4266"
               style="fill:#002d62;fill-opacity:1;fill-rule:nonzero;stroke:none"
               d="m 0,0 c 0,1.077 -0.152,1.888 -0.761,2.522 -0.417,0.431 -1.051,0.76 -1.926,0.76 -0.874,0 -1.495,-0.329 -1.914,-0.76 C -5.209,1.888 -5.361,1.077 -5.361,0 c 0,-1.09 0.152,-1.901 0.76,-2.535 0.419,-0.43 1.04,-0.76 1.914,-0.76 0.875,0 1.509,0.33 1.926,0.76 C -0.152,-1.901 0,-1.09 0,0 m -1.293,0 c 0,-0.697 -0.05,-1.368 -0.443,-1.762 -0.241,-0.24 -0.57,-0.379 -0.951,-0.379 -0.38,0 -0.696,0.139 -0.938,0.379 -0.392,0.394 -0.443,1.065 -0.443,1.762 0,0.697 0.051,1.368 0.443,1.762 0.242,0.24 0.558,0.367 0.938,0.367 0.381,0 0.71,-0.127 0.951,-0.367 C -1.343,1.368 -1.293,0.697 -1.293,0 m 5.691,2.104 0,0.988 -1.281,0 0,0.925 c 0,0.469 0.228,0.748 0.71,0.748 l 0.571,0 0,1.103 -0.812,0 C 2.382,5.868 1.824,5.006 1.824,4.081 l 0,-0.989 -0.734,0 0,-0.988 0.734,0 0,-5.323 1.293,0 0,5.323 1.281,0 z m 9.859,2.471 0,1.229 -6.337,0 0,-1.229 2.484,0 0,-7.794 1.369,0 0,7.794 2.484,0 z m 5.563,-4.955 0,0.57 c 0,1.825 -1.001,3.092 -2.725,3.092 -1.647,0 -2.724,-1.204 -2.724,-3.282 0,-2.446 1.279,-3.295 2.889,-3.295 1.128,0 1.749,0.342 2.408,1.001 l -0.824,0.773 c -0.456,-0.456 -0.836,-0.659 -1.559,-0.659 -1.051,0 -1.635,0.697 -1.635,1.8 l 4.17,0 z m -1.28,0.9 -2.89,0 c 0.013,0.392 0.039,0.582 0.165,0.874 0.203,0.482 0.672,0.811 1.28,0.811 0.609,0 1.065,-0.329 1.267,-0.811 0.127,-0.292 0.165,-0.482 0.178,-0.874 m 7.515,-2.903 -0.888,0.85 c -0.405,-0.444 -0.722,-0.608 -1.229,-0.608 -0.494,0 -0.912,0.202 -1.191,0.57 -0.278,0.354 -0.38,0.823 -0.38,1.571 0,0.747 0.102,1.204 0.38,1.559 0.279,0.367 0.697,0.57 1.191,0.57 0.507,0 0.824,-0.165 1.229,-0.608 l 0.888,0.862 c -0.608,0.646 -1.229,0.899 -2.117,0.899 -1.444,0 -2.864,-0.874 -2.864,-3.282 0,-2.408 1.42,-3.295 2.864,-3.295 0.888,0 1.509,0.266 2.117,0.912 m 6.552,-0.836 0,4.144 c 0,1.394 -0.799,2.357 -2.231,2.357 -0.633,0 -1.216,-0.24 -1.66,-0.722 l 0,3.244 -1.292,0 0,-9.023 1.292,0 0,3.941 c 0,0.963 0.583,1.407 1.305,1.407 0.722,0 1.293,-0.431 1.293,-1.407 l 0,-3.941 1.293,0 z m 7.071,0 0,4.106 c 0,0.723 -0.152,1.331 -0.646,1.812 -0.381,0.368 -0.926,0.583 -1.584,0.583 -0.647,0 -1.267,-0.24 -1.712,-0.722 l 0,0.646 -1.266,0 0,-6.425 1.292,0 0,3.916 c 0,0.988 0.608,1.432 1.331,1.432 0.722,0 1.293,-0.431 1.293,-1.432 l 0,-3.916 1.292,0 z M 46.597,0 c 0,1.077 -0.152,1.888 -0.76,2.522 -0.418,0.431 -1.052,0.76 -1.927,0.76 -0.874,0 -1.495,-0.329 -1.913,-0.76 C 41.388,1.888 41.237,1.077 41.237,0 c 0,-1.09 0.151,-1.901 0.76,-2.535 0.418,-0.43 1.039,-0.76 1.913,-0.76 0.875,0 1.509,0.33 1.927,0.76 0.608,0.634 0.76,1.445 0.76,2.535 m -1.292,0 c 0,-0.697 -0.051,-1.368 -0.444,-1.762 -0.241,-0.24 -0.57,-0.379 -0.951,-0.379 -0.379,0 -0.696,0.139 -0.937,0.379 -0.393,0.394 -0.444,1.065 -0.444,1.762 0,0.697 0.051,1.368 0.444,1.762 0.241,0.24 0.558,0.367 0.937,0.367 0.381,0 0.71,-0.127 0.951,-0.367 C 45.254,1.368 45.305,0.697 45.305,0 m 5.436,-3.219 0,1.102 -0.57,0 c -0.52,0 -0.697,0.254 -0.697,0.749 l 0,7.172 -1.293,0 0,-7.249 c 0,-0.95 0.532,-1.774 1.761,-1.774 l 0.799,0 z M 56.837,0 c 0,1.077 -0.153,1.888 -0.761,2.522 -0.418,0.431 -1.051,0.76 -1.926,0.76 -0.874,0 -1.495,-0.329 -1.913,-0.76 C 51.628,1.888 51.477,1.077 51.477,0 c 0,-1.09 0.151,-1.901 0.76,-2.535 0.418,-0.43 1.039,-0.76 1.913,-0.76 0.875,0 1.508,0.33 1.926,0.76 0.608,0.634 0.761,1.445 0.761,2.535 m -1.293,0 c 0,-0.697 -0.05,-1.368 -0.443,-1.762 -0.241,-0.24 -0.57,-0.379 -0.951,-0.379 -0.38,0 -0.697,0.139 -0.937,0.379 -0.393,0.394 -0.444,1.065 -0.444,1.762 0,0.697 0.051,1.368 0.444,1.762 0.24,0.24 0.557,0.367 0.937,0.367 0.381,0 0.71,-0.127 0.951,-0.367 C 55.494,1.368 55.544,0.697 55.544,0 m 7.819,-3.181 0,6.387 -1.255,0 0,-0.684 c -0.481,0.583 -1.001,0.76 -1.685,0.76 -0.646,0 -1.191,-0.203 -1.546,-0.557 -0.621,-0.621 -0.722,-1.521 -0.722,-2.611 0,-1.09 0.101,-1.99 0.722,-2.61 0.355,-0.356 0.887,-0.571 1.533,-0.571 0.659,0 1.192,0.177 1.661,0.735 l 0,-0.824 c 0,-0.861 -0.419,-1.634 -1.508,-1.634 -0.634,0 -0.989,0.19 -1.395,0.57 l -0.823,-0.824 c 0.671,-0.621 1.292,-0.849 2.268,-0.849 1.711,0 2.75,1.14 2.75,2.712 m -1.292,3.295 c 0,-1.014 -0.14,-2.015 -1.306,-2.015 -1.166,0 -1.318,1.001 -1.318,2.015 0,1.014 0.152,2.015 1.318,2.015 1.166,0 1.306,-1.001 1.306,-2.015 m 8.072,3.092 -1.381,0 -1.495,-4.524 -1.534,4.524 -1.369,0 2.243,-6.121 -0.354,-1.001 C 66.063,-4.436 65.872,-4.6 65.327,-4.6 l -0.329,0 0,-1.166 0.52,0 c 0.494,0 0.963,0.114 1.318,0.469 0.19,0.19 0.342,0.443 0.469,0.798 l 2.838,7.705 z" />
          </g>
          <path
             inkscape:connector-curvature="0"
             id="path4268"
             style="fill:#002d62;fill-opacity:1;fill-rule:nonzero;stroke:none"
             d="m 459.055,651.645 -1.368,0 0,-9.023 1.368,0 0,9.023 z m 6.83,-7.059 c 0,1.141 -0.709,1.711 -1.914,1.813 l -1.013,0.088 c -0.684,0.063 -0.887,0.355 -0.887,0.735 0,0.482 0.393,0.824 1.166,0.824 0.608,0 1.178,-0.127 1.584,-0.469 l 0.811,0.824 c -0.596,0.519 -1.419,0.722 -2.382,0.722 -1.344,0 -2.421,-0.71 -2.421,-1.964 0,-1.128 0.697,-1.673 1.901,-1.775 l 1.026,-0.088 c 0.621,-0.051 0.862,-0.33 0.862,-0.76 0,-0.609 -0.621,-0.888 -1.407,-0.888 -0.633,0 -1.33,0.14 -1.85,0.672 l -0.849,-0.849 c 0.76,-0.748 1.647,-0.925 2.699,-0.925 1.534,0 2.674,0.697 2.674,2.04 m 5.957,3.929 c -0.444,0.444 -0.913,0.608 -1.534,0.608 -0.722,0 -1.381,-0.316 -1.711,-0.773 l 0,0.697 -1.267,0 0,-6.425 1.293,0 0,3.903 c 0,0.887 0.583,1.445 1.28,1.445 0.443,0 0.672,-0.139 0.963,-0.431 l 0.976,0.976 z m 5.525,-5.893 0,4.296 c 0,1.457 -0.887,2.205 -2.649,2.205 -1.064,0 -1.698,-0.215 -2.306,-0.925 l 0.849,-0.798 c 0.355,0.456 0.697,0.621 1.406,0.621 1.002,0 1.407,-0.393 1.407,-1.205 l 0,-0.456 -1.698,0 c -1.47,0 -2.218,-0.773 -2.218,-1.85 0,-0.545 0.178,-1.039 0.507,-1.381 0.393,-0.393 0.926,-0.583 1.724,-0.583 0.798,0 1.242,0.19 1.711,0.659 l 0,-0.583 1.267,0 z m -1.293,2.319 c 0,-0.456 -0.089,-0.76 -0.278,-0.951 -0.343,-0.329 -0.71,-0.367 -1.204,-0.367 -0.812,0 -1.179,0.329 -1.179,0.913 0,0.583 0.393,0.925 1.153,0.925 l 1.508,0 0,-0.52 z m 8.276,0.52 0,0.57 c 0,1.825 -1.001,3.092 -2.725,3.092 -1.647,0 -2.725,-1.204 -2.725,-3.282 0,-2.446 1.28,-3.295 2.89,-3.295 1.127,0 1.749,0.342 2.408,1.001 l -0.824,0.773 c -0.457,-0.456 -0.836,-0.659 -1.559,-0.659 -1.052,0 -1.635,0.697 -1.635,1.8 l 4.17,0 z m -1.28,0.899 -2.89,0 c 0.013,0.393 0.038,0.583 0.165,0.875 0.203,0.481 0.672,0.811 1.28,0.811 0.608,0 1.065,-0.33 1.267,-0.811 0.127,-0.292 0.165,-0.482 0.178,-0.875 m 5.385,-3.738 0,1.102 -0.57,0 c -0.519,0 -0.697,0.254 -0.697,0.748 l 0,7.173 -1.292,0 0,-7.249 c 0,-0.95 0.532,-1.774 1.761,-1.774 l 0.798,0 z m 5.728,9.023 -1.368,0 0,-9.023 1.368,0 0,9.023 z m 7.287,-9.023 0,4.106 c 0,0.722 -0.151,1.33 -0.646,1.812 -0.38,0.368 -0.925,0.583 -1.584,0.583 -0.646,0 -1.268,-0.241 -1.711,-0.722 l 0,0.646 -1.267,0 0,-6.425 1.293,0 0,3.916 c 0,0.988 0.608,1.432 1.33,1.432 0.723,0 1.293,-0.431 1.293,-1.432 l 0,-3.916 1.292,0 z m 6.615,1.964 c 0,1.141 -0.709,1.711 -1.913,1.813 l -1.014,0.088 c -0.684,0.063 -0.887,0.355 -0.887,0.735 0,0.482 0.393,0.824 1.166,0.824 0.608,0 1.179,-0.127 1.584,-0.469 l 0.811,0.824 c -0.596,0.519 -1.419,0.722 -2.383,0.722 -1.343,0 -2.42,-0.71 -2.42,-1.964 0,-1.128 0.697,-1.673 1.901,-1.775 l 1.026,-0.088 c 0.621,-0.051 0.862,-0.33 0.862,-0.76 0,-0.609 -0.621,-0.888 -1.407,-0.888 -0.634,0 -1.33,0.14 -1.85,0.672 l -0.849,-0.849 c 0.76,-0.748 1.648,-0.925 2.699,-0.925 1.534,0 2.674,0.697 2.674,2.04 m 4.005,-1.964 0,1.102 -0.532,0 c -0.482,0 -0.71,0.279 -0.71,0.748 l 0,3.472 1.242,0 0,0.989 -1.242,0 0,1.952 -1.293,0 0,-1.952 -0.734,0 0,-0.989 0.734,0 0,-3.535 c 0,-0.926 0.558,-1.787 1.762,-1.787 l 0.773,0 z m 2.813,6.425 -1.293,0 0,-6.425 1.293,0 0,6.425 z m 0.038,2.636 -1.368,0 0,-1.368 1.368,0 0,1.368 z m 4.575,-9.061 0,1.102 -0.532,0 c -0.481,0 -0.71,0.279 -0.71,0.748 l 0,3.472 1.242,0 0,0.989 -1.242,0 0,1.952 -1.293,0 0,-1.952 -0.735,0 0,-0.989 0.735,0 0,-3.535 c 0,-0.926 0.558,-1.787 1.762,-1.787 l 0.773,0 z m 6.666,0 0,6.425 -1.292,0 0,-3.916 c 0,-0.988 -0.609,-1.432 -1.331,-1.432 -0.722,0 -1.293,0.431 -1.293,1.432 l 0,3.916 -1.293,0 0,-4.106 c 0,-0.722 0.153,-1.33 0.647,-1.812 0.38,-0.368 0.925,-0.583 1.584,-0.583 0.646,0 1.267,0.241 1.711,0.722 l 0,-0.646 1.267,0 z m 4.613,0 0,1.102 -0.533,0 c -0.481,0 -0.709,0.279 -0.709,0.748 l 0,3.472 1.242,0 0,0.989 -1.242,0 0,1.952 -1.293,0 0,-1.952 -0.735,0 0,-0.989 0.735,0 0,-3.535 c 0,-0.926 0.557,-1.787 1.762,-1.787 l 0.773,0 z m 6.603,2.839 0,0.57 c 0,1.825 -1.002,3.092 -2.725,3.092 -1.647,0 -2.725,-1.204 -2.725,-3.282 0,-2.446 1.28,-3.295 2.89,-3.295 1.127,0 1.749,0.342 2.407,1.001 l -0.823,0.773 c -0.457,-0.456 -0.837,-0.659 -1.559,-0.659 -1.052,0 -1.635,0.697 -1.635,1.8 l 4.17,0 z m -1.28,0.899 -2.89,0 c 0.013,0.393 0.038,0.583 0.165,0.875 0.203,0.481 0.672,0.811 1.28,0.811 0.608,0 1.064,-0.33 1.267,-0.811 0.127,-0.292 0.165,-0.482 0.178,-0.875" />
        </g>
      </g>
    </g>
  </g>
</svg>
